<svg width="128" height="128" viewBox="0 0 24 24" xmlns="http://www.w3.org/2000/svg">
  <defs>
    <linearGradient id="shieldGradient" x1="0%" y1="0%" x2="100%" y2="100%">
      <stop offset="0%" style="stop-color:#4a90e2;stop-opacity:1" />
      <stop offset="100%" style="stop-color:#50e3c2;stop-opacity:1" />
    </linearGradient>
  </defs>
  <path d="M12 22s8-4 8-10V5l-8-3-8 3v7c0 6 8 10 8 10z" fill="url(#shieldGradient)" />
  <path
    d="M12 11.5a2.5 2.5 0 0 1 2.5 2.5v.5a.5.5 0 0 1-1 0v-.5a1.5 1.5 0 1 0-3 0v.5a.5.5 0 0 1-1 0v-.5a2.5 2.5 0 0 1 2.5-2.5z"
    fill="#fff" fill-opacity="0.8" />
  <path d="M12 14v3" stroke="#fff" stroke-width="1.5" stroke-linecap="round" stroke-opacity="0.8" />
</svg>